<svg width="14" height="14" viewBox="0 0 14 14" fill="none" xmlns="http://www.w3.org/2000/svg">
<path d="M1.75 6.4165H3.5C3.80942 6.4165 4.10617 6.53942 4.32496 6.75821C4.54375 6.97701 4.66667 7.27375 4.66667 7.58317V9.33317C4.66667 9.64259 4.54375 9.93934 4.32496 10.1581C4.10617 10.3769 3.80942 10.4998 3.5 10.4998H2.91667C2.60725 10.4998 2.3105 10.3769 2.09171 10.1581C1.87292 9.93934 1.75 9.64259 1.75 9.33317V6.4165ZM1.75 6.4165C1.75 5.72706 1.8858 5.04438 2.14963 4.40742C2.41347 3.77046 2.80018 3.1917 3.28769 2.70419C3.7752 2.21669 4.35395 1.82997 4.99091 1.56614C5.62787 1.3023 6.31056 1.1665 7 1.1665C7.68944 1.1665 8.37213 1.3023 9.00909 1.56614C9.64605 1.82997 10.2248 2.21669 10.7123 2.70419C11.1998 3.1917 11.5865 3.77046 11.8504 4.40742C12.1142 5.04438 12.25 5.72706 12.25 6.4165M12.25 6.4165V9.33317C12.25 9.64259 12.1271 9.93934 11.9083 10.1581C11.6895 10.3769 11.3928 10.4998 11.0833 10.4998H10.5C10.1906 10.4998 9.89383 10.3769 9.67504 10.1581C9.45625 9.93934 9.33333 9.64259 9.33333 9.33317V7.58317C9.33333 7.27375 9.45625 6.97701 9.67504 6.75821C9.89383 6.53942 10.1906 6.4165 10.5 6.4165H12.25Z" stroke="black" stroke-linecap="round" stroke-linejoin="round"/>
<path d="M12.25 9.3335V10.5002C12.25 11.119 12.0042 11.7125 11.5666 12.1501C11.129 12.5877 10.5355 12.8335 9.91667 12.8335H7" stroke="black" stroke-linecap="round" stroke-linejoin="round"/>
</svg>
