<svg width="14" height="14" viewBox="0 0 14 14" fill="none" xmlns="http://www.w3.org/2000/svg">
<path d="M5.24992 8.16683L2.33325 5.25016L5.24992 2.3335" stroke="black" stroke-linecap="round" stroke-linejoin="round"/>
<path d="M2.33325 5.25H8.45825C8.87958 5.25 9.29677 5.33299 9.68603 5.49422C10.0753 5.65545 10.429 5.89178 10.7269 6.1897C11.0248 6.48762 11.2611 6.8413 11.4224 7.23056C11.5836 7.61981 11.6666 8.03701 11.6666 8.45833C11.6666 8.87966 11.5836 9.29686 11.4224 9.68611C11.2611 10.0754 11.0248 10.429 10.7269 10.727C10.429 11.0249 10.0753 11.2612 9.68603 11.4224C9.29677 11.5837 8.87958 11.6667 8.45825 11.6667H6.41659" stroke="black" stroke-linecap="round" stroke-linejoin="round"/>
</svg>
