<svg width="14" height="14" viewBox="0 0 14 14" fill="none" xmlns="http://www.w3.org/2000/svg">
<g clip-path="url(#clip0_501_2048)">
<path d="M7 4.6665C7.9665 4.6665 8.75 3.883 8.75 2.9165C8.75 1.95001 7.9665 1.1665 7 1.1665C6.0335 1.1665 5.25 1.95001 5.25 2.9165C5.25 3.883 6.0335 4.6665 7 4.6665Z" stroke="black" stroke-linecap="round" stroke-linejoin="round"/>
<path d="M3.79175 4.6665C3.53932 4.66912 3.29454 4.75355 3.09417 4.90712C2.8938 5.06068 2.74865 5.27509 2.6805 5.51817L1.22508 10.7915C1.18099 10.9622 1.17614 11.1406 1.2109 11.3134C1.24566 11.4863 1.31914 11.6489 1.4258 11.7893C1.53246 11.9296 1.66954 12.044 1.82674 12.1238C1.98394 12.2035 2.15717 12.2466 2.33342 12.2498H11.6668C11.8468 12.2498 12.0244 12.208 12.1856 12.1279C12.3469 12.0477 12.4874 11.9314 12.5961 11.7878C12.7049 11.6443 12.779 11.4776 12.8125 11.3007C12.8461 11.1238 12.8383 10.9415 12.7897 10.7682L11.3168 5.5415C11.2525 5.29266 11.1079 5.07199 10.9054 4.91377C10.7028 4.75555 10.4537 4.66863 10.1968 4.6665H3.79175Z" stroke="black" stroke-linecap="round" stroke-linejoin="round"/>
</g>
<defs>
<clipPath id="clip0_501_2048">
<rect width="14" height="14" fill="white"/>
</clipPath>
</defs>
</svg>
