<?xml version="1.0" standalone="no"?>
<!DOCTYPE svg PUBLIC "-//W3C//DTD SVG 20010904//EN"
 "http://www.w3.org/TR/2001/REC-SVG-20010904/DTD/svg10.dtd">
<svg version="1.0" xmlns="http://www.w3.org/2000/svg"
 width="1024.000000pt" height="1024.000000pt" viewBox="0 0 1024.000000 1024.000000"
 preserveAspectRatio="xMidYMid meet">
<metadata>
Created by potrace 1.16, written by Peter Selinger 2001-2019
</metadata>
<g transform="translate(0.000000,1024.000000) scale(0.100000,-0.100000)"
fill="#000000" stroke="none">
<path d="M2272 9704 c-441 -64 -844 -266 -1157 -579 -305 -304 -497 -680 -577
-1125 -19 -111 -19 -5649 0 -5760 80 -444 274 -823 577 -1125 317 -317 718
-516 1165 -580 91 -13 469 -15 2837 -15 2421 0 2745 2 2845 16 441 61 847 263
1163 579 317 317 516 717 580 1167 13 88 15 490 15 2835 0 2977 3 2823 -55
3054 -93 368 -274 687 -540 954 -314 315 -722 518 -1163 579 -100 14 -421 16
-2855 15 -2250 -1 -2759 -4 -2835 -15z m5508 -234 c402 -27 750 -166 1055
-422 196 -165 348 -360 460 -593 109 -226 159 -426 176 -705 7 -118 9 -1020 6
-2765 -3 -2340 -5 -2599 -20 -2682 -37 -206 -81 -347 -162 -518 -175 -365
-474 -665 -840 -840 -226 -108 -428 -159 -695 -176 -109 -6 -1049 -9 -2765 -6
-2850 4 -2638 -1 -2885 62 -517 131 -971 516 -1186 1004 -98 226 -139 398
-155 661 -7 118 -9 1020 -6 2765 4 2838 -1 2629 61 2875 187 739 851 1288
1621 1340 168 11 5165 11 5335 0z"/>
<path d="M2514 8406 l-34 -34 0 -626 0 -626 -295 0 c-320 0 -334 -2 -369 -54
-15 -23 -16 -103 -16 -883 0 -943 -4 -885 60 -918 24 -12 82 -15 325 -15 l295
0 0 -1696 c0 -1581 1 -1698 17 -1725 18 -31 67 -59 102 -59 35 0 88 27 106 53
14 22 16 178 15 1726 l0 1701 301 0 c330 0 338 1 373 60 14 25 16 109 16 879
l0 851 -34 38 -34 37 -311 3 -311 3 0 625 0 626 -34 34 c-30 30 -40 34 -86 34
-46 0 -56 -4 -86 -34z m656 -2216 l0 -690 -565 0 -565 0 0 690 0 690 565 0
565 0 0 -690z"/>
<path d="M5034 8406 l-34 -34 0 -1691 0 -1691 -301 0 c-266 0 -304 -2 -330
-17 -62 -37 -60 2 -57 -932 l3 -851 33 -32 32 -33 310 -3 310 -3 0 -625 0
-626 34 -34 c30 -30 40 -34 86 -34 46 0 56 4 86 34 l34 34 0 626 0 625 310 3
310 3 32 33 33 32 3 851 c3 934 5 895 -57 932 -26 15 -64 17 -330 17 l-301 0
0 1691 0 1691 -34 34 c-30 30 -40 34 -86 34 -46 0 -56 -4 -86 -34z m646 -4356
l0 -690 -560 0 -560 0 0 690 0 690 560 0 560 0 0 -690z"/>
<path d="M7584 8410 c-12 -4 -31 -21 -43 -36 -21 -27 -21 -29 -21 -640 l0
-614 -304 0 c-299 0 -303 0 -337 -23 -19 -13 -39 -38 -46 -57 -15 -45 -18
-1646 -3 -1701 6 -19 22 -46 36 -60 l26 -24 314 -3 314 -3 0 -1690 0 -1691 34
-34 c30 -30 40 -34 86 -34 46 0 56 4 86 34 l34 34 0 1691 0 1691 295 0 c243 0
301 3 325 15 64 33 60 -25 60 918 0 780 -1 860 -16 883 -35 52 -49 54 -369 54
l-295 0 0 605 c0 665 1 648 -60 680 -32 16 -83 19 -116 5z m616 -2220 l0 -690
-565 0 -565 0 0 690 0 690 565 0 565 0 0 -690z"/>
</g>
</svg>
